REM DIRINDEX 1\2,1\3,1\4
REM DIRNAME folder01,folder02,folder03,folder04
TITLE ""
FILE "090 090_TOEFL_3900.mp3" MP3
  TRACK 01 AUDIO
    TITLE "2:cjc151_3913"
    INDEX 01 00:00:00
  TRACK 02 AUDIO
    TITLE "0:"
    INDEX 01 00:01:36
  TRACK 03 AUDIO
    TITLE "3:cjc151_3914"
    INDEX 01 00:03:21
  TRACK 04 AUDIO
    TITLE "0:"
    INDEX 01 00:07:74
  TRACK 05 AUDIO
    TITLE "2:cjc151_3915"
    INDEX 01 00:09:51
  TRACK 06 AUDIO
    TITLE "0:"
    INDEX 01 00:10:59
  TRACK 07 AUDIO
    TITLE "3:cjc151_3916"
    INDEX 01 00:12:32
  TRACK 08 AUDIO
    TITLE "0:"
    INDEX 01 00:16:48
  TRACK 09 AUDIO
    TITLE "2:cjc151_3917"
    INDEX 01 00:18:23
  TRACK 10 AUDIO
    TITLE "0:"
    INDEX 01 00:19:34
  TRACK 11 AUDIO
    TITLE "3:cjc151_3918"
    INDEX 01 00:21:13
  TRACK 12 AUDIO
    TITLE "0:"
    INDEX 01 00:25:56
  TRACK 13 AUDIO
    TITLE "2:cjc151_3919"
    INDEX 01 00:27:34
  TRACK 14 AUDIO
    TITLE "0:"
    INDEX 01 00:28:41
  TRACK 15 AUDIO
    TITLE "3:cjc151_3920"
    INDEX 01 00:30:18
  TRACK 16 AUDIO
    TITLE "0:"
    INDEX 01 00:33:26
  TRACK 17 AUDIO
    TITLE "2:cjc151_3921"
    INDEX 01 00:35:04
  TRACK 18 AUDIO
    TITLE "0:"
    INDEX 01 00:36:09
  TRACK 19 AUDIO
    TITLE "3:cjc151_3922"
    INDEX 01 00:37:63
  TRACK 20 AUDIO
    TITLE "0:"
    INDEX 01 00:40:73
  TRACK 21 AUDIO
    TITLE "2:cjc151_3923"
    INDEX 01 00:42:51
  TRACK 22 AUDIO
    TITLE "0:"
    INDEX 01 00:43:54
  TRACK 23 AUDIO
    TITLE "3:cjc151_3924"
    INDEX 01 00:45:32
  TRACK 24 AUDIO
    TITLE "0:"
    INDEX 01 00:49:69
  TRACK 25 AUDIO
    TITLE "2:cjc151_3925"
    INDEX 01 00:51:46
  TRACK 26 AUDIO
    TITLE "0:"
    INDEX 01 00:52:45
  TRACK 27 AUDIO
    TITLE "3:cjc151_3926"
    INDEX 01 00:54:25
  TRACK 28 AUDIO
    TITLE "0:"
    INDEX 01 00:57:11
  TRACK 29 AUDIO
    TITLE "2:cjc151_3927"
    INDEX 01 00:58:67
  TRACK 30 AUDIO
    TITLE "0:"
    INDEX 01 00:59:69
  TRACK 31 AUDIO
    TITLE "3:cjc151_3928"
    INDEX 01 01:01:48
  TRACK 32 AUDIO
    TITLE "0:"
    INDEX 01 01:04:21
  TRACK 33 AUDIO
    TITLE "2:cjc151_3929"
    INDEX 01 01:05:73
  TRACK 34 AUDIO
    TITLE "0:"
    INDEX 01 01:07:08
  TRACK 35 AUDIO
    TITLE "3:cjc151_3930"
    INDEX 01 01:08:62
  TRACK 36 AUDIO
    TITLE "0:"
    INDEX 01 01:12:36
  TRACK 37 AUDIO
    TITLE "2:cjc151_3931"
    INDEX 01 01:14:27
  TRACK 38 AUDIO
    TITLE "0:"
    INDEX 01 01:15:35
  TRACK 39 AUDIO
    TITLE "3:cjc151_3932"
    INDEX 01 01:17:14
  TRACK 40 AUDIO
    TITLE "0:"
    INDEX 01 01:20:71
  TRACK 41 AUDIO
    TITLE "2:cjc151_3933"
    INDEX 01 01:22:52
  TRACK 42 AUDIO
    TITLE "0:"
    INDEX 01 01:23:56
  TRACK 43 AUDIO
    TITLE "3:cjc151_3934"
    INDEX 01 01:25:35
  TRACK 44 AUDIO
    TITLE "0:"
    INDEX 01 01:29:45
  TRACK 45 AUDIO
    TITLE "2:cjc151_3935"
    INDEX 01 01:31:24
  TRACK 46 AUDIO
    TITLE "0:"
    INDEX 01 01:32:19
  TRACK 47 AUDIO
    TITLE "3:cjc151_3936"
    INDEX 01 01:33:72
  TRACK 48 AUDIO
    TITLE "0:"
    INDEX 01 01:37:07
  TRACK 49 AUDIO
    TITLE "2:cjc151_3937"
    INDEX 01 01:38:61
  TRACK 50 AUDIO
    TITLE "0:"
    INDEX 01 01:39:59
  TRACK 51 AUDIO
    TITLE "3:cjc151_3938"
    INDEX 01 01:41:36
  TRACK 52 AUDIO
    TITLE "0:"
    INDEX 01 01:45:24
  TRACK 53 AUDIO
    TITLE "2:cjc151_3939"
    INDEX 01 01:47:09
  TRACK 54 AUDIO
    TITLE "0:"
    INDEX 01 01:48:05
  TRACK 55 AUDIO
    TITLE "3:cjc151_3940"
    INDEX 01 01:49:59
  TRACK 56 AUDIO
    TITLE "0:"
    INDEX 01 01:52:73
  TRACK 57 AUDIO
    TITLE "2:cjc151_3941"
    INDEX 01 01:54:52
  TRACK 58 AUDIO
    TITLE "0:"
    INDEX 01 01:55:65
  TRACK 59 AUDIO
    TITLE "3:cjc151_3942"
    INDEX 01 01:57:45
  TRACK 60 AUDIO
    TITLE "0:"
    INDEX 01 02:01:05
  TRACK 61 AUDIO
    TITLE "2:cjc151_3943"
    INDEX 01 02:02:60
  TRACK 62 AUDIO
    TITLE "0:"
    INDEX 01 02:03:63
  TRACK 63 AUDIO
    TITLE "3:cjc151_3944"
    INDEX 01 02:05:42
  TRACK 64 AUDIO
    TITLE "0:"
    INDEX 01 02:08:37
  TRACK 65 AUDIO
    TITLE "2:cjc151_3945"
    INDEX 01 02:10:16
  TRACK 66 AUDIO
    TITLE "0:"
    INDEX 01 02:11:21
  TRACK 67 AUDIO
    TITLE "3:cjc151_3946"
    INDEX 01 02:12:74
  TRACK 68 AUDIO
    TITLE "0:"
    INDEX 01 02:15:64
  TRACK 69 AUDIO
    TITLE "2:cjc151_3947"
    INDEX 01 02:17:44
  TRACK 70 AUDIO
    TITLE "0:"
    INDEX 01 02:18:59
  TRACK 71 AUDIO
    TITLE "3:cjc151_3948"
    INDEX 01 02:20:36
  TRACK 72 AUDIO
    TITLE "0:"
    INDEX 01 02:24:69
  TRACK 73 AUDIO
    TITLE "2:cjc151_3949"
    INDEX 01 02:26:48
  TRACK 74 AUDIO
    TITLE "0:"
    INDEX 01 02:28:00
  TRACK 75 AUDIO
    TITLE "3:cjc151_3950"
    INDEX 01 02:29:49
  TRACK 76 AUDIO
    TITLE "0:"
    INDEX 01 02:33:60
  TRACK 77 AUDIO
    TITLE "2:cjc151_3951"
    INDEX 01 02:35:38
  TRACK 78 AUDIO
    TITLE "0:"
    INDEX 01 02:36:45
  TRACK 79 AUDIO
    TITLE "3:cjc151_3952"
    INDEX 01 02:38:24
  TRACK 80 AUDIO
    TITLE "0:"
    INDEX 01 02:41:13
  TRACK 81 AUDIO
    TITLE "2:cjc151_3953"
    INDEX 01 02:42:67
  TRACK 82 AUDIO
    TITLE "0:"
    INDEX 01 02:43:63
  TRACK 83 AUDIO
    TITLE "3:cjc151_3954"
    INDEX 01 02:45:42
  TRACK 84 AUDIO
    TITLE "0:"
    INDEX 01 02:49:26
  TRACK 85 AUDIO
    TITLE "2:cjc151_3955"
    INDEX 01 02:51:03
  TRACK 86 AUDIO
    TITLE "0:"
    INDEX 01 02:51:72
  TRACK 87 AUDIO
    TITLE "3:cjc151_3956"
    INDEX 01 02:53:57
  TRACK 88 AUDIO
    TITLE "0:"
    INDEX 01 02:56:51
